<?xml version="1.0" encoding="UTF-8" standalone="no"?>
<svg width="261px" height="312px" viewBox="0 0 261 312" version="1.1" xmlns="http://www.w3.org/2000/svg" xmlns:xlink="http://www.w3.org/1999/xlink">
    <!-- Generator: Sketch 3.6.1 (26313) - http://www.bohemiancoding.com/sketch -->
    <title>Untitled</title>
    <desc>Created with Sketch.</desc>
    <defs>
        <filter x="-50%" y="-50%" width="200%" height="200%" filterUnits="objectBoundingBox" id="filter-1">
            <feOffset dx="5" dy="5" in="SourceAlpha" result="shadowOffsetOuter1"></feOffset>
            <feGaussianBlur stdDeviation="4" in="shadowOffsetOuter1" result="shadowBlurOuter1"></feGaussianBlur>
            <feColorMatrix values="0 0 0 0 0   0 0 0 0 0   0 0 0 0 0  0 0 0 0.35 0" in="shadowBlurOuter1" type="matrix" result="shadowMatrixOuter1"></feColorMatrix>
            <feMerge>
                <feMergeNode in="shadowMatrixOuter1"></feMergeNode>
                <feMergeNode in="SourceGraphic"></feMergeNode>
            </feMerge>
        </filter>
        <filter x="-50%" y="-50%" width="200%" height="200%" filterUnits="objectBoundingBox" id="filter-2">
            <feOffset dx="5" dy="5" in="SourceAlpha" result="shadowOffsetOuter1"></feOffset>
            <feGaussianBlur stdDeviation="4" in="shadowOffsetOuter1" result="shadowBlurOuter1"></feGaussianBlur>
            <feColorMatrix values="0 0 0 0 0   0 0 0 0 0   0 0 0 0 0  0 0 0 0.35 0" in="shadowBlurOuter1" type="matrix" result="shadowMatrixOuter1"></feColorMatrix>
            <feMerge>
                <feMergeNode in="shadowMatrixOuter1"></feMergeNode>
                <feMergeNode in="SourceGraphic"></feMergeNode>
            </feMerge>
        </filter>
        <filter x="-50%" y="-50%" width="200%" height="200%" filterUnits="objectBoundingBox" id="filter-3">
            <feOffset dx="5" dy="5" in="SourceAlpha" result="shadowOffsetOuter1"></feOffset>
            <feGaussianBlur stdDeviation="5" in="shadowOffsetOuter1" result="shadowBlurOuter1"></feGaussianBlur>
            <feColorMatrix values="0 0 0 0 0   0 0 0 0 0   0 0 0 0 0  0 0 0 0.35 0" in="shadowBlurOuter1" type="matrix" result="shadowMatrixOuter1"></feColorMatrix>
            <feMerge>
                <feMergeNode in="shadowMatrixOuter1"></feMergeNode>
                <feMergeNode in="SourceGraphic"></feMergeNode>
            </feMerge>
        </filter>
    </defs>
    <g id="Page-1" stroke="none" stroke-width="1" fill="none" fill-rule="evenodd">
        <path d="M68.4034485,137.332866 C70.3397015,127.01894 80.2757741,117.087205 90.5843594,115.151955 L196.364272,95.2936893 C206.678198,93.3574363 213.928814,100.212167 212.556781,110.620821 L197.722803,223.155775 C196.351753,233.556969 186.815923,243.099276 176.407269,244.471309 L63.8723151,259.305287 C53.4711209,260.676337 46.6099328,253.421364 48.5451832,243.112778 L68.4034485,137.332866 Z" id="Rectangle-1-Copy-2" fill-opacity="0.970000029" fill="#4A4A4A" style="mix-blend-mode: overlay;" filter="url(#filter-1)" transform="translate(130.470964, 177.219056) rotate(45.000000) translate(-130.470964, -177.219056) "></path>
        <path d="M68.4034485,111.332866 C70.3397015,101.01894 80.2757741,91.087205 90.5843594,89.1519546 L196.364272,69.2936893 C206.678198,67.3574363 213.928814,74.2121675 212.556781,84.6208211 L197.722803,197.155775 C196.351753,207.556969 186.815923,217.099276 176.407269,218.471309 L63.8723151,233.305287 C53.4711209,234.676337 46.6099328,227.421364 48.5451832,217.112778 L68.4034485,111.332866 Z" id="Rectangle-1-Copy" fill-opacity="0.800000012" fill="#FFED00" filter="url(#filter-2)" transform="translate(130.470964, 151.219056) rotate(45.000000) translate(-130.470964, -151.219056) "></path>
        <path d="M68.4034485,84.3328655 C70.3397015,74.0189397 80.2757741,64.087205 90.5843594,62.1519546 L196.364272,42.2936893 C206.678198,40.3574363 213.928814,47.2121675 212.556781,57.6208211 L197.722803,170.155775 C196.351753,180.556969 186.815923,190.099276 176.407269,191.471309 L63.8723151,206.305287 C53.4711209,207.676337 46.6099328,200.421364 48.5451832,190.112778 L68.4034485,84.3328655 Z" id="Rectangle-1" fill-opacity="0.849999964" fill="#4990E2" filter="url(#filter-3)" transform="translate(130.470964, 124.219056) rotate(45.000000) translate(-130.470964, -124.219056) "></path>
        <g id="python-plain" transform="translate(68.000000, 88.000000)" fill="#1E3B5C">
            <path d="M47.4692623,34.8387097 L77.3452869,34.8387097 C85.6618852,34.8387097 92.2131148,30.8508387 92.2131148,26.118 L92.2131148,9.97722581 C92.2131148,5.38316129 85.4180328,1.93180645 77.3002049,1.16535484 C72.1629098,0.680516129 66.8545082,0.459870968 61.7397541,0.473806452 C56.6270492,0.48716129 51.8913934,0.733935484 47.5952869,1.16535484 C34.9364754,2.43174194 32.7868852,5.08529032 32.7868852,9.97722581 L32.7868852,16.2580645 L62.5,16.2580645 L62.5,18.5806452 L21.2868852,18.5806452 C12.5942623,18.5806452 4.98155738,21.5465806 2.60143443,27.1805806 C-0.145491803,33.6373548 -0.267418033,37.5851613 2.60143443,44.3270323 C4.72745902,49.3449677 9.80430328,52.8387097 18.4979508,52.8387097 L28.6885246,52.8387097 L28.6885246,45.2624516 C28.6885246,39.6667742 37.3237705,34.8387097 47.4692623,34.8387097 L47.4692623,34.8387097 Z M45.5860656,12.1296774 C42.4856557,12.1296774 39.9733607,10.6902581 39.9733607,8.91 C39.9733607,7.12219355 42.4846311,5.66941935 45.5860656,5.66941935 C48.6752049,5.66941935 51.1997951,7.12219355 51.1997951,8.91 C51.1987705,10.6902581 48.6741803,12.1296774 45.5860656,12.1296774 L45.5860656,12.1296774 Z M122.214139,27.1805806 C120.064549,22.2752903 115.961066,18.5806452 107.256148,18.5806452 L96.3114754,18.5806452 L96.3114754,26.118 C96.3114754,31.9534839 87.3012295,36.5806452 77.3452869,36.5806452 L47.4692623,36.5806452 C39.2848361,36.5806452 32.7868852,40.8344516 32.7868852,45.4796129 L32.7868852,61.6215484 C32.7868852,66.2144516 39.6977459,68.9167742 47.6045082,70.2348387 C57.0737705,71.8124516 66.0409836,72.0975484 77.369877,70.2348387 C84.8995902,68.9986452 92.2131148,66.5123226 92.2131148,61.6215484 L92.2131148,55.1612903 L62.5,55.1612903 L62.5,52.8387097 L107.256148,52.8387097 C115.94877,52.8387097 119.189549,49.4849032 122.214139,44.3264516 C125.336066,39.0164516 125.201844,33.9915484 122.214139,27.1805806 L122.214139,27.1805806 Z M79.227459,59.4679355 C82.3288934,59.4679355 84.8411885,60.9073548 84.8411885,62.6887742 C84.8411885,64.4748387 82.329918,65.9281935 79.227459,65.9281935 C76.1383197,65.9281935 73.6147541,64.4754194 73.6147541,62.6887742 C73.6147541,60.9073548 76.1383197,59.4679355 79.227459,59.4679355 L79.227459,59.4679355 Z" id="Shape" style="mix-blend-mode: difference;"></path>
        </g>
    </g>
</svg>